<?xml version="1.0" standalone="no"?>
<!DOCTYPE svg PUBLIC "-//W3C//DTD SVG 20010904//EN"
 "http://www.w3.org/TR/2001/REC-SVG-20010904/DTD/svg10.dtd">
<svg version="1.0" xmlns="http://www.w3.org/2000/svg"
 width="25.000000pt" height="25.000000pt" viewBox="0 0 25.000000 25.000000"
 preserveAspectRatio="xMidYMid meet">
<metadata>
Created by potrace 1.16, written by Peter Selinger 2001-2019
</metadata>
<g transform="translate(0.000000,25.000000) scale(0.008333,-0.010417)"
fill="#000000" stroke="none">
<path d="M1237 2050 c-79 -24 -90 -58 -97 -282 -6 -219 -7 -222 -112 -278
l-66 -35 67 -32 c101 -48 105 -58 111 -283 6 -201 14 -232 67 -267 24 -16 56
-18 293 -18 237 0 269 2 293 18 53 35 61 66 67 267 3 112 10 193 17 205 19 34
55 62 111 88 l52 24 -32 14 c-55 21 -106 57 -125 86 -15 23 -19 58 -23 213 -6
201 -14 232 -67 267 -24 16 -57 18 -278 20 -137 1 -263 -2 -278 -7z m480 -113
c28 -27 28 -29 33 -185 6 -178 16 -211 80 -265 l38 -31 -43 -38 c-65 -57 -77
-98 -84 -275 -8 -210 6 -198 -241 -198 l-190 0 -27 28 c-28 27 -28 29 -33 190
-6 182 -13 203 -78 258 l-39 32 48 46 c60 58 69 92 72 264 3 204 8 207 269
204 l168 -2 27 -28z"/>
<path d="M1443 1646 l-28 -24 0 -152 0 -152 28 -24 c35 -30 78 -31 113 -1 21
18 28 35 32 75 4 48 3 52 -17 52 -17 0 -21 -6 -21 -36 0 -47 -16 -74 -43 -74
-47 0 -52 12 -55 142 -4 147 4 178 47 178 34 0 51 -22 51 -64 0 -20 5 -26 21
-26 20 0 21 4 16 42 -11 80 -86 113 -144 64z"/>
<path d="M1270 695 c0 -34 -1 -35 -40 -35 -50 0 -60 -17 -60 -105 0 -97 6
-104 90 -103 l70 0 0 139 0 139 -30 0 c-28 0 -30 -3 -30 -35z"/>
<path d="M1740 695 c0 -34 -1 -35 -40 -35 -34 0 -42 -4 -50 -26 -13 -33 -13
-125 0 -158 9 -24 13 -25 80 -25 l70 1 0 139 0 139 -30 0 c-28 0 -30 -3 -30
-35z"/>
<path d="M2137 703 c-11 -10 -8 -199 3 -227 8 -22 16 -26 50 -26 43 0 57 23
20 33 -17 4 -20 14 -20 71 0 59 2 66 20 66 13 0 20 7 20 20 0 13 -7 20 -20 20
-15 0 -20 7 -20 25 0 20 -5 25 -23 25 -13 0 -27 -3 -30 -7z"/>
<path d="M790 641 c-5 -11 -10 -50 -10 -86 0 -95 8 -105 81 -105 55 0 60 2 69
26 17 43 13 54 -20 54 -23 0 -30 -4 -30 -20 0 -13 -7 -20 -20 -20 -19 0 -21 5
-18 68 2 52 6 67 18 67 8 0 16 -10 18 -22 3 -18 10 -23 33 -23 31 0 36 11 19
54 -9 24 -14 26 -69 26 -49 0 -62 -4 -71 -19z"/>
<path d="M987 653 c-12 -12 -8 -178 5 -191 7 -7 36 -12 65 -12 41 0 54 4 63
19 14 27 13 164 -2 179 -13 13 -120 17 -131 5z"/>
<path d="M1382 648 c-7 -7 -12 -43 -12 -93 0 -50 5 -86 12 -93 16 -16 110 -16
126 0 7 7 12 22 12 35 0 18 -6 23 -25 23 -16 0 -25 -6 -25 -15 0 -9 -9 -15
-25 -15 -20 0 -25 5 -25 25 0 23 3 25 50 25 l50 0 0 48 c0 26 -5 53 -12 60 -7
7 -35 12 -63 12 -28 0 -56 -5 -63 -12z"/>
<path d="M1950 641 c-29 -54 5 -111 65 -111 28 0 35 -4 35 -20 0 -15 -7 -20
-25 -20 -14 0 -25 5 -25 10 0 6 -13 10 -30 10 -34 0 -34 1 -20 -34 9 -24 14
-26 69 -26 51 0 62 3 72 21 13 26 5 89 -13 101 -7 4 -30 8 -50 8 -31 0 -38 4
-38 20 0 15 7 20 25 20 14 0 25 -4 25 -10 0 -5 11 -10 25 -10 25 0 31 13 19
44 -5 12 -21 16 -65 16 -47 0 -60 -4 -69 -19z"/>
</g>
</svg>
